<?xml version="1.0" encoding="utf-8"?>
<!-- Generator: Adobe Illustrator 17.0.0, SVG Export Plug-In . SVG Version: 6.00 Build 0)  -->
<!DOCTYPE svg PUBLIC "-//W3C//DTD SVG 1.1//EN" "http://www.w3.org/Graphics/SVG/1.1/DTD/svg11.dtd">
<svg version="1.1" id="Layer_2" xmlns="http://www.w3.org/2000/svg" xmlns:xlink="http://www.w3.org/1999/xlink" x="0px" y="0px"
	 width="170.949px" height="77.135px" viewBox="0 0 170.949 77.135" enable-background="new 0 0 170.949 77.135"
	 xml:space="preserve">
<rect x="-146.051" y="-86.865" display="none" fill="#BFBFBF" width="411" height="226"/>
<g id="Layer_1">
	<g>
		<path fill="#FE0202" d="M22.528,35.208c2.102-4.095,4.211-8.186,6.3-12.287c0.372-0.73,0.689-1.788,1.611-1.546
			c1.057,0.277,1.539,1.42,1.11,2.419c-3.152,7.353-6.669,14.517-12.42,20.258c-1.694,1.691-3.117,1.052-3.282-1.309
			c-0.181-2.59-0.041-5.202-0.041-8.722c-2.696,3.547-4.792,6.419-7.029,9.176c-0.686,0.846-1.528,2.042-2.835,1.676
			c-1.605-0.448-1.541-2.109-1.572-3.337c-0.085-3.321,0.207-6.653,0.085-9.971c-0.077-2.108-0.106-4.353-1.981-5.959
			c-0.84-0.72-3.895-0.436-1.692-2.701c1.628-1.673,3.88-2.905,6.131-0.705c1.498,1.464,1.868,3.465,2.12,5.472
			c0.331,2.629,0.701,5.252,1.138,8.502c2.983-4.138,5.032-8.21,7-12.346c0.452-0.951,0.572-2.614,2.089-2.411
			c1.627,0.218,1.798,1.845,1.839,3.118c0.109,3.44,0.037,6.886,0.037,10.329C21.602,34.979,22.065,35.093,22.528,35.208z"/>
		<path fill="#FE0303" d="M97.67,38.674c1.745-10.062,5.157-20.279,8.646-30.474c0.558-1.632,1.679-2.557,3.425-1.894
			c1.933,0.734,0.871,2.104,0.508,3.315c-2.283,7.616-4.775,15.18-6.712,22.883c-0.794,3.158-3.738,7.676,2.894,8.865
			c1.244,0.223,0.789,1.662-0.17,2.276c-1.85,1.184-3.864,2.116-6.078,1.135C97.814,43.73,97.645,41.52,97.67,38.674z"/>
		<path fill="#FFFFFF" d="M87.238,22.822c-3.302,1.252-5.499,3.998-8.232,6.333c-1.129-4.212,2.005-5.999,3.618-8.487
			c0.113-0.174,4.951-4.922,6.839-8.043c1.004-1.443,1.601-3.219,2.449-4.75c1.306-2.358,2.284-5.434-0.243-7.241
			c-2.442-1.746-4.885,0.471-6.392,2.314c-8.971,10.964-13.252,23.583-12.53,37.78c0.225,4.425,3.332,5.072,6.763,4.19
			c6.281-1.615,13.501-11.638,13.488-18.308C92.99,22.497,91.135,21.344,87.238,22.822z M81.174,18.015
			c1.163-4.668,2.626-9.234,6.243-13.451c1.696,4.119-0.442,7.916-2.542,10.908c-0.035,0.05-0.07,0.1-0.105,0.15
			c-0.166,0.235-0.332,0.467-0.495,0.691c0,0,0.027-0.019,0.051-0.036c-0.737,1.112-1.372,2.202-2.034,3.015
			C81.555,19.158,80.909,19.078,81.174,18.015z M82.498,40.196c-0.622,0.481-1.388,0.774-1.887,1.045
			c-2.138-0.218-2.17-1.398-2.006-2.859c0.369-3.273,5.274-10.377,7.708-11.054c0.673-0.187,1.212-0.259,1.607,0.507
			C88.727,29.4,84.861,38.366,82.498,40.196z"/>
		<path fill="#FE0202" d="M152.825,23.308c-4.452-2.844-8.852-2.568-13.502,0.766c-2.617,1.876-4.32,4.54-6.306,6.966l-0.128,0.143
			c-0.597,3.21-2.075,6.299-1.469,9.676c0.756,4.213,3.72,5.514,7.154,2.997c1.787-1.309,3.259-3.048,5.089-4.8
			c0.757,3.089-0.273,5.543-0.856,8.046c-0.085,2.495-0.859,4.81-2.01,6.98c-0.614,1.159-1.602,2.477-3.043,1.871
			c-1.792-0.753-1.201-2.544-0.66-3.816c0.745-1.752,1.867-3.344,2.827-5.005c-4.533,0.268-6.544,3.477-7.881,7.14
			c-0.859,2.352-0.196,4.52,2.095,6.056c2.236,1.499,4.144,0.619,5.945-0.646c2.526-1.775,3.925-4.431,5.129-7.192
			c3.793-8.703,4.959-18.193,8.133-27.079C153.654,24.536,153.71,23.874,152.825,23.308z M147.837,26.999
			c-2.363,3.765-4.733,7.528-7.225,11.206c-0.671,0.99-1.391,2.656-3.001,1.889c-1.199-0.571-0.517-2.059-0.643-3.015
			c0.181-5.575,3.65-10.345,8.748-12.162c0.874-0.311,1.766-1.18,2.63-0.094C149.022,25.675,148.229,26.374,147.837,26.999z"/>
		<path fill="#FE0404" d="M40.753,35.983c3.312-2.501,6.532-5.133,9.046-8.476c1.097-1.459,2.244-3.186,0.857-4.967
			c-1.228-1.577-3.161-1.641-5.025-1.303C38.18,22.59,31.624,32.473,33.267,39.819c0.933,4.172,3.76,5.99,7.686,5.161
			c3.793-0.801,6.706-3.181,8.253-7.777c-2.713,0.483-3.779,2.132-5.291,3.09c-1.614,1.022-3.111,1.289-4.404-0.313
			C38.01,38.122,39.309,37.074,40.753,35.983z M43.167,25.159c0.667-0.621,1.558-1.465,2.522-0.642
			c0.711,0.607,0.312,1.56-0.08,2.249c-1.5,2.639-3.213,5.098-6.693,7.248C39.302,29.775,40.888,27.279,43.167,25.159z"/>
		<path fill="#FE0404" d="M60.733,35.995c3.317-2.495,6.531-5.134,9.053-8.47c1.1-1.455,2.252-3.18,0.882-4.969
			c-1.218-1.59-3.153-1.657-5.017-1.324c-7.449,1.331-14.019,11.206-12.39,18.565c0.923,4.17,3.732,6.002,7.668,5.187
			c3.809-0.789,6.705-3.188,8.284-7.753c-2.722,0.433-3.774,2.099-5.281,3.052c-1.609,1.016-3.106,1.314-4.411-0.284
			C58.016,38.156,59.277,37.09,60.733,35.995z M63.156,25.165c0.667-0.624,1.561-1.463,2.524-0.655
			c0.714,0.599,0.346,1.58-0.077,2.244c-1.611,2.531-2.954,5.356-6.623,6.734C59.285,29.776,60.886,27.29,63.156,25.165z"/>
		<path fill="#FE0404" d="M128.963,27.04c-1.248-3.158-4.688-4.588-7.954-3.723c-5.829,1.543-10.262,7.137-10.737,13.55
			c-0.486,6.562,4.666,10.16,10.777,7.505c4.157-1.806,6.376-5.411,7.487-9.431c0.723-2.617,2.064-3.474,4.352-3.757
			c0,0,0.128-0.143,0.127-0.142C132.476,28.918,129.776,29.098,128.963,27.04z M124.949,35.964c-1.42,2.625-3.128,6-6.534,4.882
			c-3.798-1.247-2.896-5.234-2.336-8.221c0.712-3.802,3.136-6.438,7.259-7.698c2.109,1.647,3.464,3.778,3.309,6.428
			C126.554,32.924,125.726,34.527,124.949,35.964z"/>
	</g>
</g>
<text transform="matrix(1 0 0 1 0 73.1351)" fill="#FFFFFF" font-family="'TimesNewRomanPSMT'" font-size="12">Usability - Technology - Creativity</text>
</svg>
